<svg width="300" height="199" viewBox="0 0 300 199" fill="none" xmlns="http://www.w3.org/2000/svg">
<g clip-path="url(#clip0_1429_21300)">
<path d="M151.978 55.9312C149.303 51.5116 146.133 46.7929 141.169 45.3498C135.42 43.6786 129.515 46.9985 124.506 50.2745C109.526 60.0722 95.0999 70.6901 81.2939 82.0795L81.309 82.2511C92.0575 81.5106 102.806 80.7701 113.554 80.0297C121.32 79.4947 129.353 78.8859 136.216 75.216C138.82 73.8234 141.358 71.9633 144.309 71.8336C147.976 71.6726 151.173 74.2305 153.685 76.9029C168.545 92.7111 172.846 116.886 189.518 130.774C179.005 104.874 166.452 79.8482 151.978 55.9312Z" fill="#F2F2F2"/>
<path d="M243.325 190.013C241.681 187.94 241.01 187.455 239.389 185.363C226.19 168.31 213.784 150.68 202.171 132.475C194.283 120.111 186.786 107.509 179.68 94.67C176.297 88.5661 173.007 82.4143 169.81 76.2146C167.329 71.4075 164.903 66.5716 162.532 61.707C161.854 60.3176 161.196 58.9218 160.54 57.5228C158.996 54.2329 157.48 50.927 155.853 47.6818C153.999 43.9831 151.741 40.1054 148.336 37.6205C146.786 36.4431 144.933 35.7308 142.993 35.5667C140.221 35.3878 137.663 36.5313 135.258 37.7802C117.666 46.944 101.196 58.4331 86.2997 71.5065C71.3648 84.6093 58.0155 99.4122 46.5238 115.614C46.1722 116.115 45.3408 115.636 45.6957 115.131C47.093 113.157 48.518 111.205 49.9707 109.273C68.0338 85.2749 90.1818 64.6376 115.402 48.3047C119.646 45.5577 123.968 42.9397 128.371 40.4504C130.59 39.1951 132.819 37.9558 135.086 36.7932C137.308 35.6529 139.668 34.6276 142.206 34.5893C150.846 34.4551 155.319 44.229 158.392 50.8056C159.357 52.8754 160.335 54.9388 161.324 56.9958C165.061 64.8053 168.943 72.5435 172.969 80.2104C175.453 84.944 177.992 89.65 180.585 94.3282C188.655 108.896 197.233 123.17 206.318 137.148C218.353 155.664 230.292 172.021 244.002 189.336C244.38 189.815 243.705 190.499 243.325 190.013Z" fill="#E4E4E4"/>
<path d="M85.4453 66.6799C84.9433 66.121 84.4445 65.562 83.9393 65.003C79.9553 60.6016 75.6805 56.2512 70.2096 53.7279C67.6011 52.4868 64.7535 51.8274 61.8643 51.7955C58.878 51.8051 55.9588 52.5876 53.1995 53.6832C51.8949 54.2038 50.6191 54.7947 49.3626 55.424C47.9269 56.1458 46.5168 56.9156 45.1132 57.6918C42.4785 59.1483 39.8779 60.6687 37.3116 62.2529C32.2052 65.4055 27.2588 68.7987 22.4723 72.4325C19.991 74.317 17.561 76.2633 15.1821 78.2713C12.9695 80.1366 10.8017 82.052 8.67863 84.0174C8.22462 84.4358 7.54673 83.7587 8.00074 83.3403C8.56029 82.8196 9.12624 82.3022 9.69219 81.7912C11.2909 80.3474 12.9152 78.9314 14.5651 77.543C17.5738 75.0069 20.6603 72.5688 23.8248 70.2286C28.7457 66.5873 33.8359 63.1931 39.0956 60.0458C41.7239 58.4743 44.3884 56.9689 47.0891 55.5294C47.9045 55.095 48.7295 54.6702 49.564 54.2677C51.4575 53.3136 53.4249 52.5135 55.4472 51.8753C58.3118 50.9496 61.3426 50.6522 64.3328 51.0034C67.2199 51.4229 70.0016 52.3842 72.531 53.8365C77.9026 56.8358 82.0688 61.4736 86.1231 65.9996C86.5325 66.4595 85.8577 67.1399 85.4453 66.6799Z" fill="#E4E4E4"/>
<path d="M195.508 112.291L208.38 107.588L214.771 105.253C216.852 104.492 218.928 103.626 221.08 103.082C222.95 102.548 224.935 102.574 226.791 103.155C228.446 103.766 229.96 104.705 231.245 105.913C232.558 107.12 233.779 108.423 234.899 109.811C236.29 111.481 237.661 113.169 239.038 114.851C244.721 121.794 250.367 128.767 255.976 135.771C261.585 142.774 267.156 149.807 272.69 156.87C278.237 163.95 283.746 171.059 289.217 178.199C289.887 179.073 290.557 179.948 291.226 180.824C291.595 181.307 292.429 180.831 292.054 180.34C286.543 173.129 280.993 165.948 275.405 158.796C269.803 151.627 264.162 144.488 258.483 137.38C252.804 130.271 247.086 123.194 241.33 116.148C239.896 114.392 238.46 112.639 237.021 110.887C235.808 109.409 234.608 107.916 233.277 106.541C230.833 104.016 227.781 101.785 224.127 101.725C221.978 101.689 219.899 102.37 217.903 103.092C215.751 103.869 213.604 104.662 211.455 105.447L198.493 110.183L195.253 111.367C194.678 111.577 194.926 112.503 195.508 112.291L195.508 112.291Z" fill="#E4E4E4"/>
<path d="M68.5157 59.2666C61.9746 55.9082 53.5978 56.566 47.5869 60.7617C59.0521 62.7377 70.3919 65.3816 81.5482 68.6799C76.9154 65.9678 73.2915 61.7185 68.5157 59.2666Z" fill="#F2F2F2"/>
<path d="M47.5229 60.75L46.2637 61.7725C46.6896 61.4146 47.1324 61.0791 47.5873 60.7616C47.5658 60.7579 47.5444 60.7537 47.5229 60.75Z" fill="#F2F2F2"/>
<path d="M230.761 112.338C229.494 110.797 228.124 109.184 226.228 108.558L224.459 108.628C237.928 132.404 256.12 153.179 277.916 169.678C262.198 150.565 246.479 131.451 230.761 112.338Z" fill="#F2F2F2"/>
<path d="M120.731 99.6279C121.55 102.6 123.395 105.186 125.939 106.93C126.922 107.599 128.086 108.241 128.423 109.381C128.6 110.108 128.491 110.875 128.118 111.524C127.746 112.165 127.293 112.755 126.771 113.281L126.724 113.459C124.283 112.014 121.96 110.186 120.612 107.692C119.264 105.198 119.075 101.93 120.731 99.6279" fill="#F2F2F2"/>
<path d="M201.998 170.357C202.816 173.329 204.661 175.916 207.205 177.66C208.189 178.329 209.353 178.971 209.689 180.111C209.866 180.838 209.757 181.605 209.385 182.254C209.013 182.894 208.56 183.485 208.038 184.01L207.99 184.189C205.549 182.744 203.227 180.916 201.879 178.422C200.53 175.928 200.342 172.659 201.998 170.357" fill="#F2F2F2"/>
<path d="M39.8131 165.479C40.6319 168.451 42.4766 171.038 45.0208 172.782C46.0044 173.451 47.1682 174.093 47.5047 175.233C47.6817 175.96 47.5726 176.727 47.2 177.376C46.828 178.016 46.3754 178.607 45.8532 179.132L45.8056 179.311C43.3646 177.866 41.0424 176.038 39.6941 173.544C38.3457 171.05 38.1575 167.781 39.8131 165.479" fill="#F2F2F2"/>
<path d="M226.447 35.5389C236.271 35.5389 244.235 27.5833 244.235 17.7695C244.235 7.95566 236.271 0 226.447 0C216.623 0 208.659 7.95566 208.659 17.7695C208.659 27.5833 216.623 35.5389 226.447 35.5389Z" fill="#06C149"/>
<path d="M258.548 4.13577C249.927 2.97172 240.085 7.62649 237.85 16.0251C237.287 14.5318 236.264 13.256 234.927 12.382C233.591 11.508 232.011 11.0811 230.415 11.1629C228.82 11.2446 227.292 11.8309 226.052 12.837C224.812 13.8431 223.925 15.2168 223.518 16.7598L224.505 17.466C242.979 21.4569 262.102 21.3705 280.54 17.2129C274.543 10.9173 267.168 5.2998 258.548 4.13577Z" fill="#F0F0F0"/>
<path d="M221.577 27.8286C212.956 26.6646 203.114 31.3194 200.88 39.718C200.317 38.2247 199.293 36.9489 197.956 36.0749C196.62 35.2009 195.04 34.774 193.445 34.8557C191.849 34.9375 190.321 35.5238 189.081 36.5299C187.842 37.5359 186.954 38.9097 186.547 40.4527L187.534 41.1589C206.008 45.1498 225.132 45.0634 243.569 40.9058C237.572 34.6102 230.198 28.9927 221.577 27.8286Z" fill="#F0F0F0"/>
<path d="M296.819 32.3087C296.783 32.3088 296.747 32.3032 296.714 32.2923C204.493 3.15802 123.213 6.96785 71.2666 15.2942C64.1972 16.4269 57.109 17.7352 50.1987 19.183C48.4345 19.5522 46.6043 19.9479 44.7588 20.3599C42.5549 20.8502 40.3803 21.3552 38.2951 21.8601C37.3945 22.0731 36.5116 22.2878 35.6462 22.5042C34.3353 22.8275 33.0053 23.1643 31.5795 23.5345C29.9863 23.9449 28.3675 24.3753 26.7672 24.8139C26.7613 24.8159 26.7553 24.8176 26.7493 24.819L26.7495 24.8193C24.9418 25.3123 23.1438 25.8197 21.4049 26.3263C20.4638 26.5978 19.5551 26.8656 18.6847 27.13C18.5874 27.1569 18.5013 27.1827 18.4139 27.2093L18.2269 27.2661C18.1186 27.2991 18.0116 27.3314 17.9047 27.362L17.8979 27.3641L17.898 27.3644L17.615 27.4522C17.2774 27.5543 16.9481 27.654 16.6242 27.7534C8.06328 30.3897 3.35708 32.2651 3.31059 32.2835C3.26807 32.3005 3.22262 32.309 3.17682 32.3085C3.13102 32.308 3.08577 32.2985 3.04366 32.2805C3.00154 32.2625 2.96339 32.2364 2.93137 32.2036C2.89936 32.1709 2.87411 32.1322 2.85707 32.0897C2.84003 32.0473 2.83153 32.0019 2.83205 31.9561C2.83258 31.9104 2.84212 31.8652 2.86013 31.8231C2.87815 31.781 2.90427 31.7429 2.93703 31.7109C2.96979 31.6789 3.00853 31.6537 3.05104 31.6367C3.09788 31.6183 7.82707 29.7333 16.4191 27.0871C16.7442 26.9875 17.0744 26.8878 17.413 26.7853L17.676 26.7037C17.685 26.7003 17.694 26.6976 17.7032 26.6948C17.8096 26.6646 17.9159 26.6322 18.0239 26.5996L18.2112 26.5427C18.3046 26.5145 18.3965 26.4866 18.4907 26.4607C19.3552 26.1981 20.267 25.9296 21.2105 25.6571C22.95 25.1501 24.7497 24.6428 26.5587 24.149C26.5643 24.147 26.5701 24.1456 26.5757 24.1439V24.1436C28.1817 23.7036 29.8064 23.2715 31.4047 22.8598C32.8327 22.4893 34.1654 22.1517 35.4784 21.8278C36.3475 21.6118 37.2322 21.3966 38.1324 21.1824C40.22 20.6767 42.3991 20.1711 44.6069 19.6798C46.4552 19.2674 48.2886 18.8707 50.0556 18.5011C56.9767 17.051 64.076 15.7407 71.1561 14.6063C123.177 6.26796 204.573 2.45198 296.924 31.6282C297.003 31.6532 297.071 31.7058 297.115 31.7765C297.159 31.8471 297.176 31.9311 297.163 32.0134C297.151 32.0956 297.109 32.1706 297.046 32.2247C296.983 32.2789 296.902 32.3087 296.819 32.3087Z" fill="#CCCCCC"/>
<path d="M91.7267 146.281C91.6059 145.929 91.4027 145.61 91.1338 145.351C91.0345 145.259 90.9271 145.176 90.8129 145.104C89.9026 144.497 88.5423 144.361 87.6773 145.104C87.5902 145.179 87.5097 145.262 87.4367 145.351C87.1786 145.668 86.9135 145.978 86.6414 146.281C86.195 146.79 85.7381 147.281 85.2603 147.759C85.1242 147.891 84.9882 148.027 84.8487 148.159C84.7685 148.239 84.6883 148.316 84.608 148.393C84.3011 148.685 83.9872 148.968 83.6698 149.246C83.5024 149.396 83.335 149.543 83.1641 149.685C82.9095 149.898 82.6549 150.11 82.3968 150.316C82.3723 150.333 82.3479 150.351 82.3235 150.372C82.3165 150.375 82.313 150.382 82.3061 150.386C82.3026 150.386 82.2991 150.386 82.2956 150.393C82.2862 150.396 82.2778 150.402 82.2712 150.41C82.1945 150.462 82.1421 150.497 82.1038 150.529C82.1177 150.522 82.1317 150.511 82.1456 150.504C82.0828 150.553 82.0166 150.602 81.9538 150.651C81.3434 151.1 80.7191 151.532 80.0808 151.936C78.5017 152.946 76.843 153.826 75.1211 154.567C75.006 154.612 74.8874 154.661 74.7688 154.706C70.2607 156.551 65.3703 157.271 60.521 156.804C60.0257 156.765 59.5305 156.713 59.0352 156.647C58.4632 156.563 57.8947 156.462 57.3297 156.347C55.1786 155.918 53.0738 155.284 51.0446 154.452C48.5062 153.291 46.0919 151.876 43.8387 150.229C43.4899 149.982 43.1376 149.734 42.7854 149.494C43.1865 148.511 43.5806 147.529 43.9642 146.539C44.1561 146.062 44.3409 145.584 44.5223 145.104C45.9488 141.4 47.2882 137.661 48.5717 133.909C49.8692 130.108 51.0934 126.284 52.2444 122.439C52.363 122.049 52.4781 121.658 52.5897 121.268C53.1931 119.237 53.772 117.201 54.3266 115.16C54.3789 114.962 54.4347 114.767 54.4836 114.568C54.644 113.983 54.801 113.397 54.9544 112.812C55.3032 111.491 54.515 109.913 53.1268 109.596C52.4584 109.425 51.7497 109.52 51.1498 109.86C50.5499 110.201 50.1058 110.761 49.911 111.422C49.761 111.986 49.6111 112.547 49.4576 113.112C48.7217 115.84 47.9474 118.559 47.1347 121.268C47.0161 121.658 46.8975 122.049 46.7789 122.439C44.9862 128.341 43.0179 134.184 40.874 139.968C40.6159 140.668 40.3543 141.366 40.0893 142.062C39.9602 142.403 39.8312 142.745 39.6986 143.086C39.444 143.759 39.1824 144.431 38.9208 145.104C38.7708 145.497 38.6174 145.891 38.4639 146.281C38.3628 146.529 38.2651 146.776 38.1675 147.02C37.173 146.663 36.1427 146.416 35.0947 146.281L34.9273 146.26C34.1147 146.163 33.293 146.17 32.4823 146.281C31.2689 146.423 30.1014 146.829 29.0624 147.471C28.0233 148.112 27.1381 148.974 26.4692 149.995C24.8055 152.612 24.8265 156.354 27.1598 158.577C29.563 160.866 33.2008 160.849 36.0294 159.417C37.5284 158.607 38.7923 157.423 39.6986 155.981C40.0458 155.459 40.3648 154.918 40.6543 154.361C40.7275 154.41 40.8008 154.459 40.874 154.511C41.153 154.706 41.4321 154.905 41.7076 155.1C43.3131 156.262 45.0049 157.3 46.7685 158.204C50.5604 160.087 54.6422 161.321 58.8434 161.852C58.9375 161.863 59.0282 161.877 59.1224 161.887C59.5863 161.946 60.0536 161.992 60.521 162.03C67.2254 162.535 73.938 161.164 79.9064 158.072C80.4122 157.811 80.9132 157.536 81.4097 157.25C82.1805 156.804 82.9339 156.33 83.6698 155.828C84.0709 155.556 84.4616 155.281 84.8487 154.992C86.5405 153.747 88.1175 152.354 89.5608 150.828C90.1083 150.253 90.6327 149.66 91.1338 149.048C91.6076 148.547 91.8807 147.89 91.9011 147.201C91.8984 146.887 91.8393 146.575 91.7267 146.281ZM33.9716 154.581C34.0448 154.528 34.1181 154.473 34.1878 154.417C34.1669 154.469 34.0658 154.528 33.9716 154.581H33.9716ZM35.0912 153.455C35.011 153.546 34.9377 153.636 34.8575 153.727C34.6134 154 34.3513 154.256 34.0727 154.494C34.0344 154.528 33.9925 154.563 33.9507 154.595C33.9502 154.595 33.9497 154.595 33.9493 154.595C33.9489 154.595 33.9485 154.595 33.9482 154.596C33.9478 154.596 33.9476 154.596 33.9474 154.597C33.9472 154.597 33.9472 154.598 33.9472 154.598C33.8968 154.621 33.8479 154.646 33.8007 154.675C33.6507 154.765 33.4972 154.849 33.3403 154.926C33.033 155.039 32.7168 155.126 32.3951 155.187C32.1479 155.205 31.8997 155.207 31.6522 155.194H31.6452C31.4744 155.156 31.3056 155.11 31.1395 155.055C31.0558 155.013 30.9755 154.964 30.8953 154.915C30.8639 154.887 30.836 154.859 30.8186 154.842C30.7845 154.811 30.753 154.777 30.7244 154.741C30.7244 154.741 30.7244 154.74 30.7242 154.74C30.724 154.739 30.7238 154.739 30.7234 154.738C30.7231 154.738 30.7227 154.738 30.7223 154.738C30.7219 154.738 30.7214 154.737 30.7209 154.737C30.6826 154.668 30.6407 154.598 30.6024 154.528C30.6004 154.527 30.5991 154.524 30.5989 154.521C30.571 154.434 30.5466 154.344 30.5256 154.253C30.5181 154.094 30.5192 153.935 30.5291 153.776C30.5759 153.553 30.6389 153.334 30.7175 153.121C30.7881 152.969 30.8685 152.823 30.9581 152.682C30.9651 152.668 31 152.612 31.0383 152.549C31.0418 152.546 31.0418 152.546 31.0418 152.542C31.0941 152.483 31.1465 152.42 31.2023 152.365C31.2964 152.26 31.3976 152.17 31.4987 152.076C31.6954 151.947 31.8992 151.829 32.1091 151.724C32.4421 151.605 32.7837 151.513 33.131 151.448C33.6432 151.408 34.1579 151.412 34.6692 151.462C35.1535 151.546 35.6313 151.664 36.0992 151.814C35.8156 152.364 35.4927 152.893 35.1331 153.396C35.1191 153.417 35.1051 153.438 35.0912 153.455ZM31.2127 152.309C31.182 152.358 31.1457 152.404 31.1046 152.445C31.1323 152.394 31.1689 152.347 31.2127 152.309Z" fill="#3F3D56"/>
<path d="M81.2419 110.697C81.2105 111.791 81.1791 112.885 81.1477 113.979C81.0814 116.407 81.0128 118.837 80.9419 121.268C80.8687 124.003 80.7919 126.737 80.7117 129.47C80.6734 130.881 80.6338 132.292 80.5931 133.703C80.485 137.504 80.3781 141.304 80.2723 145.103C80.2618 145.497 80.2478 145.887 80.2374 146.281C80.1851 148.166 80.1327 150.051 80.0804 151.936C80.0211 153.981 79.963 156.026 79.906 158.071C79.8642 159.605 79.8212 161.139 79.777 162.674C79.4631 173.799 79.1492 184.924 78.8353 196.049C78.822 196.738 78.5422 197.395 78.0544 197.883C77.5667 198.37 76.909 198.649 76.2194 198.663C75.5273 198.657 74.8652 198.38 74.3758 197.891C73.8865 197.402 73.6091 196.741 73.6035 196.049C73.7779 189.792 73.9546 183.534 74.1337 177.276C74.2906 171.618 74.4499 165.96 74.6115 160.301C74.6638 158.437 74.7161 156.572 74.7685 154.706C74.8487 151.897 74.9277 149.089 75.0056 146.281C75.0161 145.887 75.03 145.497 75.0405 145.103C75.0475 144.758 75.0579 144.417 75.0684 144.072C75.2219 138.619 75.3753 133.165 75.5288 127.71C75.5916 125.564 75.652 123.416 75.7102 121.268C75.7799 118.818 75.8497 116.37 75.9194 113.923C75.9508 112.846 75.9787 111.773 76.0101 110.697C76.0234 110.008 76.3032 109.351 76.791 108.864C77.2787 108.376 77.9364 108.097 78.626 108.083C79.3181 108.089 79.9802 108.366 80.4695 108.855C80.9589 109.344 81.2363 110.005 81.2419 110.697Z" fill="#3F3D56"/>
<path d="M224.741 111.422C221.998 121.798 218.719 132.025 214.919 142.062C213.87 144.831 212.797 147.594 211.65 150.324L211.914 149.7C211.402 151 210.748 152.24 209.964 153.397C209.911 153.472 209.857 153.546 209.802 153.619C210.073 153.273 210.124 153.204 209.956 153.414C209.867 153.518 209.78 153.624 209.688 153.726C209.444 153.999 209.182 154.255 208.904 154.493C208.834 154.553 208.763 154.612 208.69 154.669L209.018 154.415C208.98 154.505 208.713 154.623 208.63 154.674C208.361 154.836 208.081 154.978 207.791 155.098L208.416 154.835C207.942 155.026 207.446 155.162 206.941 155.239L207.636 155.146C207.139 155.215 206.635 155.22 206.137 155.162L206.832 155.255C206.425 155.199 206.026 155.092 205.645 154.936L206.27 155.199C206.066 155.111 205.871 155.007 205.684 154.887C205.589 154.826 205.299 154.605 205.679 154.896C206.074 155.197 205.73 154.922 205.648 154.841C205.581 154.775 205.519 154.702 205.453 154.634C205.145 154.319 205.801 155.176 205.591 154.808C205.48 154.623 205.377 154.433 205.285 154.238L205.549 154.862C205.429 154.565 205.344 154.255 205.295 153.938L205.388 154.633C205.338 154.239 205.338 153.84 205.387 153.446L205.294 154.141C205.358 153.701 205.474 153.271 205.641 152.859L205.377 153.483C205.493 153.206 205.631 152.938 205.788 152.682C205.86 152.55 205.946 152.425 206.042 152.309C206.059 152.314 205.6 152.836 205.843 152.573C205.907 152.504 205.967 152.431 206.031 152.363C206.135 152.254 206.245 152.154 206.354 152.05C206.719 151.704 205.844 152.387 206.265 152.112C206.57 151.912 206.89 151.738 207.224 151.59L206.599 151.854C207.157 151.624 207.743 151.467 208.341 151.387L207.646 151.48C208.395 151.394 209.152 151.403 209.899 151.507L209.204 151.413C210.15 151.557 211.074 151.816 211.956 152.187L211.331 151.923C213.211 152.73 214.876 153.927 216.538 155.1C218.143 156.261 219.835 157.299 221.597 158.203C225.39 160.087 229.472 161.321 233.673 161.853C239.699 162.59 245.813 161.804 251.455 159.567C257.097 157.329 262.087 153.712 265.966 149.048C266.439 148.546 266.711 147.889 266.732 147.2C266.727 146.508 266.452 145.845 265.966 145.352C265.006 144.472 263.193 144.223 262.266 145.352C261.388 146.423 260.443 147.439 259.439 148.393C258.97 148.837 258.488 149.268 257.994 149.685C257.712 149.924 257.426 150.157 257.136 150.386C256.998 150.494 256.571 150.783 257.227 150.317C257.077 150.424 256.933 150.54 256.784 150.65C254.588 152.268 252.207 153.62 249.693 154.679L250.318 154.416C247.619 155.547 244.785 156.322 241.887 156.723L242.582 156.63C239.601 157.022 236.58 157.017 233.6 156.617L234.295 156.71C231.316 156.301 228.401 155.508 225.626 154.351L226.251 154.615C223.572 153.431 221.03 151.96 218.669 150.228C217.441 149.319 216.145 148.504 214.793 147.791C213.218 146.987 211.513 146.469 209.757 146.262C206.465 145.875 203.111 147.155 201.301 149.997C199.635 152.612 199.657 156.353 201.989 158.577C204.391 160.867 208.03 160.847 210.861 159.415C213.587 158.035 215.225 155.169 216.377 152.467C218.969 146.385 221.263 140.163 223.401 133.909C225.516 127.721 227.434 121.472 229.156 115.159C229.369 114.377 229.579 113.595 229.786 112.811C230.135 111.491 229.346 109.912 227.959 109.597C227.29 109.425 226.581 109.519 225.981 109.859C225.38 110.2 224.936 110.76 224.741 111.422L224.741 111.422Z" fill="#3F3D56"/>
<path d="M250.841 110.697L249.9 144.073L248.963 177.275L248.434 196.05C248.439 196.741 248.717 197.402 249.206 197.891C249.696 198.38 250.358 198.657 251.049 198.663C251.739 198.65 252.397 198.37 252.884 197.883C253.372 197.396 253.652 196.739 253.665 196.05L254.607 162.673L255.544 129.471L256.073 110.697C256.067 110.005 255.79 109.344 255.301 108.855C254.811 108.367 254.149 108.089 253.457 108.083C252.768 108.097 252.11 108.376 251.622 108.864C251.135 109.351 250.855 110.008 250.841 110.697Z" fill="#3F3D56"/>
<path opacity="0.2" d="M160.298 186.731H161.11V149.784H180.059V148.974H161.11V133.385H175.744C175.529 133.112 175.309 132.843 175.082 132.577H161.11V122.28C160.842 122.166 160.571 122.056 160.298 121.952V132.577H144.375V119.384C144.103 119.397 143.834 119.415 143.563 119.438V132.577H130.86V122.734C130.588 122.855 130.319 122.982 130.052 123.115V132.577H119.374V133.385H130.052V148.974H119.374V149.784H130.052V186.731H130.86V149.784C132.529 149.783 134.181 150.111 135.722 150.749C137.263 151.387 138.664 152.321 139.843 153.5C141.023 154.678 141.959 156.077 142.597 157.617C143.235 159.157 143.564 160.807 143.563 162.473V186.731H144.375V149.784H160.298V186.731ZM130.86 148.974V133.385H143.563V148.974H130.86ZM144.375 148.974V133.385H144.694C146.743 133.385 148.773 133.788 150.666 134.572C152.559 135.355 154.279 136.504 155.728 137.951C157.177 139.399 158.327 141.117 159.111 143.009C159.895 144.9 160.298 146.927 160.298 148.974H144.375Z" fill="black"/>
<path d="M155.338 175.653C154.315 180.21 151.866 184.323 148.345 187.395C148.086 187.618 147.828 187.834 147.56 188.046C146.908 188.106 146.26 188.166 145.617 188.227C145.083 188.276 144.557 188.329 144.034 188.377L143.939 188.388L143.873 187.816L143.608 185.503C142.58 183.826 141.942 181.939 141.743 179.982C141.544 178.026 141.788 176.05 142.457 174.2C143.378 171.719 145.045 169.528 146.684 167.354C148.948 164.35 151.149 161.382 151.229 157.72C152.343 159.144 153.269 160.705 153.984 162.364C153.309 162.682 152.703 163.128 152.199 163.678C152.056 163.834 151.913 164.054 152.01 164.242C152.094 164.402 152.303 164.441 152.485 164.462C152.921 164.507 153.36 164.552 153.796 164.598C154.145 164.636 154.494 164.671 154.842 164.709C155.264 166.093 155.551 167.514 155.697 168.953C155.932 171.191 155.811 173.453 155.338 175.653Z" fill="#3F3D56"/>
<path d="M166.918 166.521C164.86 168.016 163.656 170.165 162.722 172.535C161.764 172.841 160.902 173.391 160.221 174.13C160.078 174.287 159.935 174.507 160.033 174.695C160.116 174.855 160.326 174.893 160.507 174.914C160.943 174.96 161.382 175.005 161.818 175.05C160.884 177.852 160.026 180.75 158.372 183.116C157.273 184.678 155.84 185.977 154.176 186.917C153.723 187.176 153.255 187.407 152.774 187.611C151.003 187.747 149.264 187.892 147.56 188.046C146.908 188.106 146.26 188.166 145.617 188.228C145.084 188.276 144.557 188.329 144.034 188.377C144.03 188.186 144.03 187.994 144.034 187.802C144.144 182.698 146.024 177.789 149.353 173.914C149.51 173.733 149.67 173.556 149.834 173.378C151.521 171.578 153.504 170.082 155.697 168.953C159.153 167.158 163.027 166.318 166.918 166.521Z" fill="#06C149"/>
<path d="M146.22 186.44L145.819 187.625L145.617 188.228C145.083 188.276 144.556 188.329 144.033 188.378L143.939 188.388C143.36 188.447 142.784 188.506 142.209 188.566C142.059 188.391 141.909 188.214 141.763 188.033C138.122 183.629 136.374 177.964 136.902 172.277C137.429 166.59 140.189 161.343 144.577 157.682C144.117 160.089 144.654 162.396 145.536 164.685C145.442 164.723 145.352 164.762 145.264 164.803C144.589 165.121 143.983 165.567 143.479 166.117C143.336 166.274 143.193 166.493 143.29 166.681C143.374 166.842 143.583 166.88 143.765 166.901C144.201 166.946 144.64 166.991 145.076 167.037C145.425 167.075 145.774 167.11 146.122 167.148C146.286 167.166 146.45 167.183 146.614 167.2C146.639 167.253 146.659 167.302 146.684 167.354C147.678 169.507 148.749 171.671 149.352 173.915C149.503 174.478 149.622 175.049 149.708 175.625C149.976 177.574 149.802 179.558 149.199 181.43C148.595 183.302 147.577 185.015 146.22 186.44Z" fill="#06C149"/>
<path d="M181.328 135.906C178.325 130.055 173.674 125.132 168.203 121.514C162.714 117.902 156.416 115.702 149.87 115.111C149.011 115.033 148.151 114.987 147.289 114.974C146.27 114.958 130.943 119.375 125.808 122.981C120.677 126.543 116.455 131.261 113.485 136.753C110.519 142.275 109.061 148.48 109.256 154.743C109.51 161.045 111.268 167.194 114.384 172.679C117.457 178.146 121.82 182.78 127.095 186.178C132.444 189.588 137.818 198.629 144.134 198.949C150.498 199.27 157.756 190.742 163.56 188.152C169.364 185.541 174.382 181.456 178.113 176.304C181.739 171.255 184.085 165.403 184.949 159.25C185.847 152.949 185.428 146.451 183.274 140.429C182.722 138.882 182.072 137.371 181.328 135.906C180.707 134.684 178.888 134.235 177.749 134.968C177.162 135.329 176.737 135.902 176.563 136.568C176.388 137.234 176.477 137.941 176.811 138.543C177.175 139.261 177.514 139.99 177.827 140.731L177.564 140.106C178.75 142.955 179.556 145.946 179.962 149.004L179.869 148.31C180.301 151.627 180.293 154.988 179.846 158.303L179.939 157.609C179.487 160.924 178.601 164.166 177.304 167.251L177.568 166.627C176.901 168.201 176.123 169.726 175.241 171.19C174.794 171.93 174.319 172.653 173.818 173.358C173.597 173.668 173.37 173.972 173.141 174.275C172.843 174.671 173.548 173.758 173.24 174.146C173.187 174.212 173.135 174.279 173.082 174.345C172.924 174.542 172.763 174.738 172.6 174.933C171.513 176.229 170.326 177.438 169.051 178.55C168.733 178.827 168.41 179.098 168.082 179.363C167.919 179.494 167.757 179.632 167.586 179.755C167.593 179.75 168.137 179.337 167.815 179.576C167.714 179.652 167.613 179.728 167.512 179.804C166.835 180.304 166.141 180.78 165.428 181.229C163.788 182.262 162.066 183.16 160.282 183.917L160.906 183.653C157.827 184.948 154.591 185.833 151.281 186.284L151.977 186.191C148.668 186.638 145.315 186.644 142.005 186.209L142.701 186.302C139.692 185.899 136.75 185.104 133.948 183.938L134.573 184.202C132.95 183.517 131.385 182.702 129.893 181.766C129.155 181.301 128.436 180.808 127.737 180.286C127.637 180.212 127.538 180.136 127.438 180.061C127.119 179.82 127.668 180.239 127.672 180.241C127.486 180.108 127.308 179.966 127.137 179.815C126.799 179.54 126.466 179.259 126.139 178.971C124.829 177.819 123.605 176.571 122.479 175.24C122.197 174.907 121.921 174.568 121.651 174.225C121.534 174.077 121.321 173.776 121.792 174.41C121.73 174.326 121.666 174.245 121.603 174.162C121.453 173.962 121.304 173.762 121.158 173.56C120.646 172.852 120.159 172.126 119.697 171.383C118.654 169.702 117.744 167.942 116.975 166.119L117.239 166.744C115.98 163.752 115.119 160.608 114.678 157.393L114.772 158.088C114.374 155.124 114.368 152.121 114.755 149.156L114.661 149.85C115.058 146.979 115.831 144.172 116.962 141.502L116.698 142.127C117.409 140.455 118.248 138.841 119.207 137.299C119.688 136.527 120.197 135.774 120.734 135.039C120.856 134.873 120.98 134.707 121.105 134.542C121.218 134.393 121.529 134.022 120.998 134.677C121.05 134.613 121.1 134.547 121.152 134.482C121.447 134.109 121.749 133.741 122.058 133.379C123.229 132.01 124.498 130.726 125.854 129.539C126.197 129.239 126.545 128.946 126.899 128.658C127.059 128.528 127.221 128.398 127.384 128.27C127.449 128.219 127.515 128.169 127.58 128.118C126.883 128.671 127.386 128.268 127.544 128.15C128.273 127.605 129.021 127.086 129.789 126.596C131.495 125.505 133.291 124.56 135.155 123.771L134.531 124.034C137.237 122.899 149.229 120.219 151.41 120.512L150.714 120.418C153.92 120.865 157.053 121.73 160.034 122.99L159.409 122.727C160.919 123.368 162.387 124.104 163.804 124.932C164.511 125.347 165.205 125.784 165.885 126.243C166.207 126.461 166.525 126.683 166.84 126.91C166.997 127.024 167.154 127.139 167.309 127.255C167.396 127.319 167.482 127.385 167.568 127.449C167.93 127.721 167.069 127.056 167.449 127.356C168.72 128.355 169.928 129.431 171.065 130.58C171.623 131.148 172.162 131.734 172.682 132.338C172.949 132.648 173.21 132.963 173.466 133.282C173.593 133.44 174.025 134.014 173.495 133.311C173.625 133.483 173.756 133.653 173.884 133.826C174.986 135.317 175.965 136.894 176.811 138.543C177.436 139.762 179.247 140.216 180.39 139.481C180.977 139.12 181.402 138.547 181.576 137.881C181.751 137.215 181.662 136.508 181.328 135.906Z" fill="#3F3D56"/>
<path d="M150.848 178.55C150.578 178.563 150.311 178.492 150.082 178.348C149.854 178.203 149.675 177.992 149.571 177.743C149.467 177.494 149.442 177.219 149.499 176.955C149.557 176.691 149.694 176.451 149.892 176.268C149.926 176.136 149.949 176.041 149.983 175.909C149.971 175.88 149.959 175.852 149.947 175.823C148.733 172.932 140.988 180.991 140.654 183.708C140.506 184.909 140.568 186.127 140.837 187.307C138.329 181.84 137.026 175.898 137.018 169.885C137.017 168.376 137.101 166.868 137.269 165.368C137.408 164.139 137.6 162.918 137.847 161.706C139.191 155.13 142.078 148.967 146.271 143.722C148.668 143.855 150.769 143.49 150.972 138.849C151.008 138.023 151.621 137.308 151.756 136.495C151.527 136.525 151.295 136.544 151.066 136.559C150.995 136.562 150.919 136.566 150.848 136.57L150.821 136.571C150.57 136.582 150.32 136.521 150.103 136.394C149.886 136.267 149.71 136.08 149.596 135.855C149.483 135.63 149.437 135.378 149.464 135.128C149.491 134.878 149.59 134.641 149.749 134.445C149.847 134.324 149.946 134.202 150.045 134.081C150.195 133.894 150.349 133.71 150.499 133.522C150.517 133.505 150.533 133.486 150.548 133.466C150.721 133.253 150.893 133.043 151.066 132.829C150.751 132.341 150.327 131.931 149.828 131.633C148.098 130.621 145.711 131.322 144.462 132.885C143.209 134.448 142.972 136.641 143.408 138.594C143.836 140.256 144.544 141.832 145.501 143.257C145.408 143.377 145.31 143.493 145.216 143.613C143.501 145.816 142.007 148.181 140.754 150.675C141.108 147.909 136.774 137.92 135.097 135.804C133.084 133.263 128.955 134.372 128.6 137.593C128.597 137.624 128.593 137.656 128.59 137.687C128.839 137.827 129.083 137.976 129.321 138.134C129.621 138.334 129.853 138.619 129.987 138.953C130.122 139.287 130.152 139.654 130.074 140.005C129.996 140.357 129.814 140.676 129.551 140.923C129.288 141.169 128.957 141.33 128.6 141.385L128.564 141.39C125.231 146.144 135.915 158.517 138.59 155.739C137.331 159.302 136.541 163.014 136.241 166.781C136.071 169.003 136.081 171.236 136.271 173.457L136.26 173.378C135.665 168.541 125.471 161.35 122.494 161.949C120.78 162.294 119.091 162.215 119.351 163.943C119.355 163.971 119.359 163.998 119.364 164.026C119.826 164.214 120.275 164.431 120.711 164.675C120.96 164.815 121.203 164.964 121.442 165.121C121.741 165.321 121.973 165.607 122.108 165.941C122.242 166.275 122.272 166.642 122.194 166.993C122.116 167.344 121.934 167.664 121.671 167.91C121.408 168.156 121.077 168.317 120.721 168.372L120.684 168.378C120.658 168.382 120.636 168.385 120.609 168.389C119.092 173.604 130.343 182.019 137.183 179.342H137.186C137.864 182.284 138.846 185.148 140.117 187.888H150.586C150.623 187.771 150.657 187.652 150.691 187.535C149.722 187.596 148.749 187.538 147.794 187.363C148.571 186.411 149.347 185.451 150.124 184.499C150.141 184.481 150.158 184.463 150.173 184.443C150.567 183.956 150.965 183.472 151.358 182.985L151.359 182.984C151.38 181.491 151.208 180.001 150.848 178.551L150.848 178.55ZM138.86 154.993L138.865 154.985L138.86 155V154.993ZM136.541 175.874L136.451 175.672C136.455 175.526 136.455 175.38 136.451 175.23C136.451 175.188 136.444 175.147 136.444 175.106C136.477 175.365 136.507 175.623 136.545 175.882L136.541 175.874Z" fill="#3F3D56"/>
<path d="M33.2214 156.789C35.3403 156.789 37.058 155.073 37.058 152.957C37.058 150.84 35.3403 149.124 33.2214 149.124C31.1025 149.124 29.3848 150.84 29.3848 152.957C29.3848 155.073 31.1025 156.789 33.2214 156.789Z" fill="#3F3D56"/>
<path d="M79.2605 198.6C81.3794 198.6 83.0971 196.884 83.0971 194.767C83.0971 192.65 81.3794 190.935 79.2605 190.935C77.1415 190.935 75.4238 192.65 75.4238 194.767C75.4238 196.884 77.1415 198.6 79.2605 198.6Z" fill="#3F3D56"/>
<path d="M254.002 198.6C256.121 198.6 257.838 196.884 257.838 194.767C257.838 192.65 256.121 190.935 254.002 190.935C251.883 190.935 250.165 192.65 250.165 194.767C250.165 196.884 251.883 198.6 254.002 198.6Z" fill="#3F3D56"/>
<path d="M263.419 149.821C265.538 149.821 267.255 148.105 267.255 145.988C267.255 143.872 265.538 142.156 263.419 142.156C261.3 142.156 259.582 143.872 259.582 145.988C259.582 148.105 261.3 149.821 263.419 149.821Z" fill="#3F3D56"/>
<path d="M252.258 114.282C254.376 114.282 256.094 112.566 256.094 110.449C256.094 108.333 254.376 106.617 252.258 106.617C250.139 106.617 248.421 108.333 248.421 110.449C248.421 112.566 250.139 114.282 252.258 114.282Z" fill="#3F3D56"/>
<path d="M92.166 145.988C92.1637 146.967 91.7847 147.908 91.1075 148.616C90.4302 149.323 89.5066 149.744 88.5277 149.79C87.5487 149.836 86.5895 149.505 85.8484 148.864C85.1073 148.224 84.6411 147.323 84.5463 146.349C84.4514 145.374 84.7352 144.401 85.3389 143.629C85.9426 142.858 86.82 142.348 87.7895 142.205C88.759 142.062 89.7464 142.297 90.5474 142.861C91.3484 143.425 91.9017 144.276 92.0927 145.236C92.142 145.484 92.1665 145.736 92.166 145.988Z" fill="#3F3D56"/>
<path d="M168.898 125.431C171.017 125.431 172.735 123.715 172.735 121.599C172.735 119.482 171.017 117.766 168.898 117.766C166.779 117.766 165.062 119.482 165.062 121.599C165.062 123.715 166.779 125.431 168.898 125.431Z" fill="#3F3D56"/>
<path d="M130.881 121.599C130.879 122.578 130.5 123.518 129.822 124.226C129.145 124.934 128.221 125.354 127.243 125.4C126.264 125.447 125.304 125.115 124.563 124.475C123.822 123.834 123.356 122.933 123.261 121.959C123.166 120.985 123.45 120.011 124.054 119.24C124.657 118.469 125.535 117.959 126.504 117.816C127.474 117.673 128.461 117.908 129.262 118.472C130.063 119.036 130.617 119.886 130.808 120.846C130.857 121.094 130.881 121.346 130.881 121.599Z" fill="#3F3D56"/>
<path d="M81.3535 110.449C81.3512 111.428 80.9722 112.369 80.295 113.077C79.6177 113.784 78.6941 114.205 77.7152 114.251C76.7362 114.297 75.777 113.966 75.0359 113.325C74.2948 112.685 73.8286 111.784 73.7338 110.81C73.6389 109.835 73.9227 108.862 74.5264 108.09C75.1301 107.319 76.0075 106.809 76.977 106.666C77.9465 106.523 78.9339 106.758 79.7349 107.322C80.5359 107.886 81.0892 108.737 81.2802 109.697C81.3295 109.945 81.354 110.197 81.3535 110.449Z" fill="#3F3D56"/>
<path d="M209.008 158.183C211.127 158.183 212.845 156.467 212.845 154.351C212.845 152.234 211.127 150.518 209.008 150.518C206.89 150.518 205.172 152.234 205.172 154.351C205.172 156.467 206.89 158.183 209.008 158.183Z" fill="#3F3D56"/>
<path d="M148.668 123.341C151.75 123.341 154.249 120.845 154.249 117.766C154.249 114.687 151.75 112.191 148.668 112.191C145.586 112.191 143.088 114.687 143.088 117.766C143.088 120.845 145.586 123.341 148.668 123.341Z" fill="#3F3D56"/>
<path d="M299.585 198.894L0.415288 199.001C0.360751 199.001 0.306747 198.99 0.256362 198.969C0.205976 198.948 0.160198 198.918 0.121635 198.879C0.0830715 198.841 0.0524778 198.795 0.0316075 198.744C0.0107372 198.694 0 198.64 0 198.585C0 198.531 0.0107372 198.477 0.0316075 198.427C0.0524778 198.376 0.0830715 198.33 0.121635 198.292C0.160198 198.253 0.205976 198.223 0.256362 198.202C0.306747 198.181 0.360751 198.17 0.415288 198.17L299.585 198.063C299.695 198.063 299.8 198.107 299.878 198.185C299.955 198.263 299.999 198.368 299.999 198.478C299.999 198.588 299.955 198.694 299.878 198.771C299.8 198.849 299.695 198.893 299.585 198.894Z" fill="#CACACA"/>
</g>
<defs>
<clipPath id="clip0_1429_21300">
<rect width="300" height="199" fill="white"/>
</clipPath>
</defs>
</svg>
